<svg version="1" xmlns="http://www.w3.org/2000/svg" width="418.667" height="418.667" viewBox="0 0 314.000000 314.000000"><path d="M217.5 18.2c-12.4 1.4-25.2 7.6-34.3 16.6-3.4 3.4-36.2 48.5-81.9 112.7-41.9 58.9-78 109.5-80.2 112.6l-4 5.7 11.1 16.3c6.1 9 11.1 16.5 11.2 16.6.1.1 24.3-5.6 53.8-12.7l53.6-12.8 62.3 12.4c34.3 6.8 62.9 12.4 63.4 12.4.6 0 6.5-5.8 13.2-12.9l12.2-12.9L267.5 146c-16.7-69.4-30.7-126.5-31-126.9-1.1-1-12.8-1.6-19-.9zm9.9 144.3c11.4 47.3 20.6 86.3 20.6 86.6 0 .3-22.2-3.8-49.2-9.3-57.5-11.4-49-11.2-87.8-1.9-13.5 3.2-24.7 5.7-24.8 5.5-.2-.1 26.6-38 59.5-84.2s60.1-83.7 60.4-83.4c.3.4 9.9 39.4 21.3 86.7z"/></svg>